<svg width="1076" height="569" viewBox="0 0 1076 569" fill="none" xmlns="http://www.w3.org/2000/svg">
<g filter="url(#filter0_f)">
<path d="M1054.65 424.662L810.041 424.662L485.861 424.662L52.6389 489.498C10.2008 501.286 15.3091 523.88 23.168 533.704C103.329 554.923 365.03 556.298 485.861 554.334C516.511 570.837 704.928 547.457 795.306 533.704L1054.65 457.08C1087.66 447.649 1068.4 431.538 1054.65 424.662Z" fill="#252323" fill-opacity="0.9"/>
</g>
<path d="M273.42 146.184C311.977 100.781 368.475 50.5185 391.904 31.0625C433.771 -6.26916 647.007 5.02304 748.392 15.3356C795.58 19.6029 815.338 34.1034 819.318 40.8202C840.985 61.8889 858.323 131.61 858.62 170.644L874.752 160.401C855.768 144.352 866.658 129.618 874.477 124.258C890.936 118.349 926.522 121.451 942.258 123.741C963.052 145.27 942.533 159.885 952.792 152.577C961 146.732 989.648 154.707 1002.95 159.425C1027.82 174.272 1031.37 215.595 1030.04 234.401C1038.48 258.626 1033.92 292.686 1030.59 306.687L1031.35 406.443C1028.02 433.071 1012.55 452.37 1005.23 458.691L969.184 458.691C951.343 438.007 923.361 415.94 923.786 407.262C885.508 411.891 792.693 414.622 792.755 422.718C792.816 430.814 777.018 489.209 771.729 504.189C760.906 517.814 758.887 521.632 758.578 522.425C758.467 522.708 758.575 522.605 758.578 522.425C758.582 522.076 758.19 521.441 755.049 522.766L693.162 523.238C671.935 522.243 641.766 526.521 631.429 523.708C602.988 504.261 633.02 464.201 631.429 448.791C420.468 456.181 249.234 453.363 216.781 448.791C205.186 474.326 156.219 471.356 141.051 479.182L128.69 491.391C55.4719 474.598 10.8237 429.636 10.127 402.653L9.66461 341.932C9.55452 327.475 -0.925129 305.867 9.32333 297.114C17.5221 290.112 23.3984 274.838 25.3117 268.076C29.7098 226.403 52.3473 206.182 63.1163 201.281L62.6319 137.669C88.5039 129.375 134.28 128.93 153.934 129.744C159.912 140.783 172.157 161.992 173.31 158.513C174.462 155.034 240.53 148.844 273.42 146.184Z" fill="#1A6ED1"/>
<path d="M736.363 280.254C752.52 273.384 779.866 278.235 797.988 335.929C802.016 348.911 807.861 393.976 799.012 470.382C793.228 484.885 773.437 517.711 740.545 532.998L652.135 533.671L624.061 523.764C610.741 516.154 585.494 491.322 581.641 449.712L634.689 449.712C643.977 443.858 663.407 427.173 670.366 412.083C675.607 390.838 703.132 352.932 711.313 343.617L711.313 318.566C711.246 309.836 726.949 282.504 736.363 280.254Z" fill="#0E0E0E"/>
<path d="M95.8097 430.917C118.207 430.747 152.353 438.198 166.626 441.944L216.78 448.792C211.491 463.772 188.85 496.427 140.598 507.204C118.983 506.887 69.2124 498.784 43.0498 468.91C26.7789 460.841 -2.67974 423.86 9.65296 340.487C25.5758 367.354 58.3056 421.082 61.842 421.055C65.3785 421.028 85.9606 427.619 95.8097 430.917Z" fill="#090808"/>
<path d="M192.751 195.956L153.956 132.636C129.157 127.041 83.7373 135.58 64.1273 140.549L64.6888 214.281L45.6984 236.113L140.003 235.395C162.171 205.153 184.405 196.502 192.751 195.956Z" fill="#151515" stroke="black"/>
<path d="M816.771 170.963C814.534 141.251 811.206 73.764 815.785 41.5072C828.694 41.5283 849.431 130.916 849.332 170.715L816.771 170.963Z" fill="#CF4B4B" fill-opacity="0.4"/>
<path d="M164.628 209.243C152.84 131.44 122.386 126.725 108.633 134.093L64.4268 142.934L64.4268 209.243L45.2708 237.241L138.104 237.241L164.628 209.243Z" fill="black"/>
<path d="M794.257 39.5653C667.835 2.35845 478.242 16.429 399.249 28.1151L276.355 144.716C390.514 119.557 669.806 145.094 795.182 161.007C800.927 141.3 796.959 71.8346 794.257 39.5653Z" fill="#E46C6C" fill-opacity="0.3"/>
<path d="M767.869 250.856C739.569 249.914 715.193 299.933 706.543 325.059C740.085 240.368 781.475 296.054 797.977 334.484C802.287 281.245 779.701 256.549 767.869 250.856Z" fill="black"/>
<path d="M1028.56 232.967C1021.36 216.828 1012.3 242.877 1008.97 256.397C1025.6 272.464 1029.54 297.539 1029.14 309.59C1037.19 282.926 1032.11 247.398 1028.56 232.967Z" fill="black"/>
<path d="M925.26 407.251C948.73 393.193 956.503 381.953 957.456 378.09C947.912 363.126 851.412 385.162 804.355 398.051L804.62 432.749C804.549 423.496 885.017 411.895 925.26 407.251Z" fill="#243B8B"/>
<path d="M805.265 281.349C815.455 295.087 809.964 346.553 805.945 370.568L796.644 331.784C799.052 269.596 769.64 254.278 754.632 254.392C780.442 238.078 799.142 265.566 805.265 281.349Z" fill="#0E4A91" fill-opacity="0.9"/>
<path d="M1002.24 260.637C943.453 280.748 848.174 282.534 807.884 280.913L807.961 291.033C868.141 298.671 962.653 286.481 1002.39 279.432L1002.24 260.637Z" fill="#C4C4C4" fill-opacity="0.5"/>
<path d="M1016.34 229.873C949.952 259.339 841.063 260.388 795.528 257.895L807.803 275.816C875.394 287.149 961.486 267.43 1006.61 257.094L1007.48 256.895L1016.34 229.873Z" fill="#2F52CD"/>
<path d="M1032.12 313.905C1030.62 272.277 1016.47 258.119 1009.58 256.244C975.182 383.738 937.062 409.089 922.301 405.828C920.199 439.387 941.351 456.286 952.19 460.541L1003.76 460.148C1021.37 450.761 1030.47 419.462 1032.81 404.986L1032.12 313.905Z" fill="#070707"/>
<path d="M655.611 339.523L611.595 343.616C595.166 357.921 610.89 362.558 620.805 363.088L657.485 359.677C671.995 350.197 662.282 342.291 655.611 339.523Z" fill="#8B521E" stroke="#223975"/>
<path d="M612.529 346.865C599.656 356.934 611.836 360.036 619.535 360.328L630.824 359.278L629.642 345.273L612.529 346.865Z" fill="#5C2525"/>
<path d="M829.282 188.218C957.789 189.552 1000.57 170.527 1005.9 160.848C978.703 149.489 961.134 151.55 955.75 154.001C906.399 175.196 883.16 168.048 877.709 161.824L857.157 172.101L818.846 172.393C806.565 107.714 813.061 57.7357 817.844 40.8315C804.728 21.2682 733.638 13.0383 699.733 11.3687C542.82 -4.78622 449.696 8.93525 422.748 17.8154C408.602 17.9231 403.152 24.7117 402.196 28.0926C588.209 -4.55352 741.083 23.1023 794.268 41.011C794.436 62.9861 803.561 100.219 795.193 162.452C533.182 122.808 343.092 136.015 280.798 147.574C240.692 144.409 194.4 154.497 176.267 159.936L197.215 201.706C177.123 194.919 152.681 223.25 142.971 238.264L44.2464 239.016L63.1928 211.401L63.1267 202.727C39.6035 209.846 31.084 252.128 29.7646 272.38C20.4839 292.114 16.1991 297.062 15.2167 297.07L30.0398 308.523L197.215 322.91L419.177 322.91C502.916 328.055 639.729 323.64 697.668 320.789C730.094 244.203 767.758 236.398 782.537 242.069L782.262 205.925C810.536 203.397 825.389 193.067 829.282 188.218Z" fill="#4B81EC"/>
<path d="M588.826 153.903L488.529 141.655L489.189 228.399L470.144 243.002L589.552 249.322L633.471 211.396L588.826 153.903Z" fill="#151515" stroke="black"/>
<path d="M602.271 237.241C589.303 184.193 570.344 159.143 562.485 153.249L485.861 141.461L488.808 153.249L488.808 228.4L468.178 243.135L589.009 250.503L602.271 237.241Z" fill="black" stroke="black"/>
<path d="M140.6 186.045C140.763 207.46 124.569 224.892 104.494 225.045C84.4182 225.198 67.9608 208.014 67.7977 186.599C67.6346 165.184 83.8285 147.752 103.904 147.599C123.98 147.446 140.437 164.629 140.6 186.045Z" fill="#C4C4C4" fill-opacity="0.4" stroke="black"/>
<path d="M134.498 185.927C134.634 203.726 121.176 218.205 104.503 218.332C87.8294 218.459 74.1524 204.187 74.0169 186.388C73.8813 168.589 87.3394 154.11 104.013 153.983C120.686 153.856 134.363 168.128 134.498 185.927Z" fill="#1F1F1F" fill-opacity="0.4" stroke="white"/>
<path d="M128.731 185.649C128.84 200.039 117.961 211.734 104.495 211.837C91.0294 211.94 79.9735 200.411 79.8639 186.021C79.7543 171.631 90.6334 159.935 104.099 159.833C117.565 159.73 128.621 171.259 128.731 185.649Z" fill="black" fill-opacity="0.4" stroke="white"/>
<path d="M579.817 197.574C579.991 220.317 561.259 238.916 537.955 239.094C514.65 239.271 495.638 220.959 495.465 198.216C495.292 175.474 514.023 156.874 537.327 156.697C560.632 156.519 579.644 174.832 579.817 197.574Z" fill="#C4C4C4" fill-opacity="0.5" stroke="black"/>
<path d="M572.5 197.335C572.646 216.512 556.851 232.198 537.197 232.348C517.542 232.498 501.51 217.054 501.364 197.877C501.218 178.701 517.013 163.014 536.668 162.865C556.322 162.715 572.354 178.159 572.5 197.335Z" fill="#1F1F1F" fill-opacity="0.5" stroke="white"/>
<path d="M567.658 197.782C567.783 214.195 554.263 227.624 537.436 227.752C520.609 227.881 506.886 214.659 506.762 198.245C506.637 181.832 520.156 168.402 536.983 168.274C553.81 168.146 567.533 181.368 567.658 197.782Z" fill="black" fill-opacity="0.5" stroke="white"/>
<path d="M260.108 120.759C282.044 106.197 303.641 107.432 311.697 109.87L291.173 128.77L270.648 147.669L260.314 147.748C254.995 147.789 255.038 140.34 256.644 132.619C257.534 128.34 258.904 123.977 260.108 120.759Z" fill="#0466DA" fill-opacity="0.9"/>
<path d="M292.826 128.199L257.461 132.619L255.988 139.987L257.461 145.881L275.144 145.881L292.826 128.199Z" fill="#1C589E"/>
<path d="M891.026 168.952C887.498 170.135 878.714 164.708 874.762 161.847C867.76 171.153 856.179 172.591 851.263 172.146C843.029 174.522 849.878 183.723 854.331 188.027C883.878 197.923 895.435 167.472 891.026 168.952Z" fill="#0E4A91" fill-opacity="0.4"/>
<path d="M439.685 306.85C418.37 294.289 430.657 282.34 439.465 277.935L541.136 277.161C569.489 285.042 553.596 300.551 549.223 306.85L439.685 306.85Z" fill="#C4C4C4" fill-opacity="0.8" stroke="#1C589E" stroke-opacity="0.5"/>
<path d="M115.217 270.284C135.327 279.384 123.714 289.496 115.394 293.415L41.6634 286.748C28.7142 289.16 27.3461 277.218 28.2808 270.946C49.4287 261.531 95.0502 266.582 115.217 270.284Z" fill="#C4C4C4" fill-opacity="0.8" stroke="#1C589E" stroke-opacity="0.5"/>
<path d="M432.813 20.6296L400.395 29.7513C394.501 31.0143 315.421 106.902 276.617 144.688C283.69 139.972 317.876 136.829 334.085 135.847C348.231 102.839 409.727 43.7151 432.813 20.6296Z" fill="#87B0FF" fill-opacity="0.8"/>
<path d="M791.733 421.832C797.983 329.868 755.793 306.877 733.916 306.877C723.916 305.123 715.042 309.655 710.354 316.159C685.352 371.109 673.495 407.659 674.537 421.832C680.788 492.38 716.728 506.701 733.916 503.552C780.17 497.253 791.733 445.453 791.733 421.832Z" fill="#3B4177"/>
<path d="M165.876 441.117C147.683 457.253 103.037 476.36 70.0022 423.705L165.876 441.117Z" fill="#090E22"/>
<path d="M1025.26 373.831C1031.15 308.995 1015.92 295.692 1007.57 293.236C989.891 293.236 989.891 337.974 989.891 373.831C988.712 426.878 1001.19 439.158 1007.57 438.667C1020.54 432.772 1024.76 392.987 1025.26 373.831Z" fill="#5B41FF"/>
<path d="M1021.06 376.719C1026.26 320.228 1012.84 308.637 1005.47 306.497C989.882 306.497 989.882 345.478 989.882 376.719C988.842 422.939 999.843 433.638 1005.47 433.21C1016.91 428.075 1020.63 393.41 1021.06 376.719Z" fill="#0A123F"/>
<ellipse cx="535.961" cy="184.193" rx="11.7884" ry="10.3148" fill="#3C6A79"/>
<ellipse cx="535.961" cy="210.717" rx="14.7354" ry="13.2619" fill="#3C6A79"/>
<ellipse cx="104.213" cy="194.508" rx="10.3148" ry="8.84127" fill="#3C6A79"/>
<path d="M62.9532 422.908L14.3262 352.178C217.086 385.185 549.223 371.825 687.736 362.492L673.001 406.699C665.928 424.381 644.512 442.555 634.689 449.432C310.509 470.651 118.457 440.59 62.9532 422.908Z" fill="#233C7E" fill-opacity="0.9"/>
<ellipse cx="105.686" cy="175.352" rx="8.84127" ry="7.36772" fill="#3C6A79"/>
<path d="M427.78 379.553C332.343 365.009 186.433 363.281 125.408 364.235C110.385 376.096 136.437 395.306 145.7 403.067C221.492 433.031 361.759 424.106 428.06 416.259C455.869 404.301 439.461 386.806 427.78 379.553Z" fill="#151515" stroke="#0E1E56"/>
<path d="M145.472 402.278C178.381 420.943 282.217 449.432 434.286 414.066C374.854 422.908 233.884 432.928 145.472 402.278Z" fill="#3972C8"/>
<path d="M5.48486 309.445C6.46723 313.374 16.3891 321.528 48.2177 322.706C143.016 329.583 380.649 342.157 572.8 337.442L703.945 327.127" stroke="#11225E"/>
<path d="M2.53784 312.392C3.52021 316.321 13.4421 324.475 45.2706 325.654C140.069 332.53 377.702 345.104 569.853 340.389L700.998 330.074" stroke="#92A7F1"/>
<path d="M804.146 397.857C851.824 387.018 949.222 367.591 957.395 376.596" stroke="#0E1E56" stroke-width="0.8"/>
<path d="M804.146 400.805C851.824 389.965 949.222 370.538 957.395 379.543" stroke="#8095E1" stroke-width="0.8"/>
<path d="M798.252 162.09L796.779 39.7856C727.817 22.9297 553.833 -1.51228 403.695 28.2336C363.796 60.954 283.111 129.964 279.564 144.242" stroke="#1E305F"/>
<path d="M786.464 159.143L799.726 162.09C801.849 155.189 797.964 77.6786 797.08 41.2592L790.445 41.2592C793.629 65.411 789.118 129.912 786.464 159.143Z" fill="#1E305F" stroke="#1E305F"/>
<path d="M798.252 163.563C804.146 167.002 795.01 174.762 693.63 178.299C681.842 177.317 653.55 182.13 634.688 209.243" stroke="#1C589E" stroke-opacity="0.8"/>
<path d="M798.252 166.511C804.146 169.949 795.01 177.71 693.63 181.246C681.842 180.264 653.55 185.077 634.688 212.19" stroke="#80A7D5" stroke-opacity="0.8"/>
<path d="M71.7944 425.855C85.0563 445.993 121.895 477.723 163.154 443.537" stroke="#492B89"/>
<g filter="url(#filter1_f)">
<path d="M167.575 215.138C229.062 210.69 378.801 204.463 485.861 215.138" stroke="#80A4EB" stroke-opacity="0.9" stroke-width="3"/>
</g>
<path d="M930.871 162.994C953.924 157.351 986.866 195.981 1004.55 271.132" stroke="#2747B8" stroke-width="0.6"/>
<path d="M951.59 144.407L867.598 144.407C859.346 155.017 881.262 164.546 895.506 167.984C937.944 166.805 952.081 151.775 951.59 144.407Z" fill="#2747B8"/>
<path d="M796.778 179.772C795.611 180.356 794.261 180.99 792.741 181.66C747.345 203.597 748.711 228.128 751.099 235.767C735.774 234.588 697.56 281.938 684.789 307.971L574.273 315.339C597.85 303.55 584.097 283.903 574.273 275.553C653.255 209.538 689.701 197.946 698.051 200.402C740.122 200.402 776.353 188.885 792.741 181.66C794.047 181.029 795.393 180.399 796.778 179.772Z" fill="#3B70D8"/>
<ellipse cx="734.89" cy="400.804" rx="48.627" ry="91.3598" fill="#101938"/>
<path d="M754.046 337.486L745.205 374.281L733.417 374.281L724.575 337.486C733.417 319.759 748.643 325.221 754.046 337.486Z" fill="#060C16"/>
<path d="M706.893 368.386L724.575 389.016L724.575 403.751L703.946 417.013C696.873 398.152 702.963 376.737 706.893 368.386Z" fill="#060C16" fill-opacity="0.9"/>
<path d="M745.205 427.328L730.47 427.328L717.208 462.693C730.175 483.912 746.187 471.535 752.573 462.693L745.205 427.328Z" fill="#060C16"/>
<path d="M767.308 377.228L754.046 397.857L754.046 406.699L767.308 411.119C772.024 401.689 769.273 384.595 767.308 377.228Z" fill="#060C16"/>
<ellipse cx="104.213" cy="194.508" rx="7.36772" ry="5.89418" fill="#90D3DC"/>
<ellipse cx="535.962" cy="209.244" rx="11.7884" ry="8.84127" fill="#90D3DC"/>
<path d="M83.5836 279.974L76.2159 268.185L117.475 272.606C131.621 283.216 120.422 290.78 113.054 293.236L68.8481 287.341L83.5836 279.974Z" fill="#C2A285"/>
<path d="M506.889 292.514L496.396 278.357L545.773 278.292C564.088 289.984 552.021 301.292 543.698 305.484L490.618 304.063L506.889 292.514Z" fill="#C2A285"/>
<defs>
<filter id="filter0_f" x="14.8396" y="421.662" width="1061.04" height="141.348" filterUnits="userSpaceOnUse" color-interpolation-filters="sRGB">
<feFlood flood-opacity="0" result="BackgroundImageFix"/>
<feBlend mode="normal" in="SourceGraphic" in2="BackgroundImageFix" result="shape"/>
<feGaussianBlur stdDeviation="1.5" result="effect1_foregroundBlur"/>
</filter>
<filter id="filter1_f" x="163.467" y="203.744" width="326.543" height="16.8902" filterUnits="userSpaceOnUse" color-interpolation-filters="sRGB">
<feFlood flood-opacity="0" result="BackgroundImageFix"/>
<feBlend mode="normal" in="SourceGraphic" in2="BackgroundImageFix" result="shape"/>
<feGaussianBlur stdDeviation="2" result="effect1_foregroundBlur"/>
</filter>
</defs>
</svg>
